# AST/ASF file generated using VICON BodyLanguage
# -----------------------------------------------
:version 1.10
:name VICON
:units
  mass 1.0
  length 0.45
  angle deg
:documentation
   .ast/.asf automatically generated from VICON data using
   VICON BodyBuilder and BodyLanguage model FoxedUp or BRILLIANT.MOD
:root
   order TX TY TZ RX RY RZ
   axis XYZ
   position 0 0 0  
   orientation 0 0 0 
:bonedata
  begin
     id 1 
     name lhipjoint
     direction 0.645422 -0.672597 0.361999 
     length 2.39934 
     axis 0 0 0  XYZ
  end
  begin
     id 2 
     name lfemur
     direction 0.34202 -0.939693 0  
     length 6.58112  
     axis 0 0 20  XYZ
    dof rx ry rz
    limits (-160.0 20.0)
           (-70.0 70.0)
           (-60.0 70.0)
  end
  begin
     id 3 
     name ltibia
     direction 0.34202 -0.939693 0   
     length 7.02673   
     axis 0 0 20   XYZ
    dof rx
    limits (-10.0 170.0)
  end
  begin
     id 4 
     name lfoot
     direction 0.0835106 -0.229444 0.969733   
     length 2.08772   
     axis -90 7.62852e-016 20   XYZ
    dof rx rz
    limits (-45.0 90.0)
           (-70.0 20.0)
  end
  begin
     id 5 
     name ltoes
     direction 1.5358e-011 -4.21925e-011 1   
     length 1.04844   
     axis -90 7.62852e-016 20   XYZ
    dof rx
    limits (-90.0 20.0)
  end
  begin
     id 6 
     name rhipjoint
     direction -0.644959 -0.672941 0.362185   
     length 2.39812  
     axis 0 0 0  XYZ 
  end
  begin
     id 7 
     name rfemur
     direction -0.34202 -0.939693 0   
     length 6.67015   
     axis 0 0 -20   XYZ
    dof rx ry rz
    limits (-160.0 20.0)
           (-70.0 70.0)
           (-70.0 60.0)
  end
  begin
     id 8 
     name rtibia
     direction -0.34202 -0.939693 0   
     length 7.35735   
     axis 0 0 -20   XYZ
    dof rx
    limits (-10.0 170.0)
 end
 begin
     id 9 
     name rfoot
     direction -0.0670769 -0.184292 0.98058   
     length 2.25469  
     axis -90 -7.62852e-016 -20   XYZ
    dof rx rz
    limits (-45.0 90.0)
           (-20.0 70.0)
  end
  begin
     id 10 
     name rtoes
     direction -1.53575e-011 -4.21908e-011 1   
     length 1.13399   
     axis -90 -7.62852e-016 -20   XYZ
    dof rx
    limits (-90.0 20.0)
  end
  begin
     id 11 
     name lowerback
     direction -0.0188328 0.993434 -0.112847   
     length 2.27656   
     axis 0 0 0   XYZ
    dof rx ry rz
    limits (-20.0 45.0)
           (-30.0 30.0)
           (-30.0 30.0)
  end
  begin
     id 12 
     name upperback
     direction 0.00983139 0.998968 -0.04435   
     length 2.28631   
     axis 0 0 0   XYZ
    dof rx ry rz
    limits (-20.0 45.0)
           (-30.0 30.0)
           (-30.0 30.0)
  end
  begin
     id 13 
     name thorax
     direction 0.0177718 0.999807 0.00833073   
     length 2.30999   
     axis 0 0 0   XYZ
    dof rx ry rz
    limits (-20.0 45.0)
           (-30.0 30.0)
           (-30.0 30.0)
  end
  begin
     id 14 
     name lowerneck
     direction -0.0835025 0.993181 0.0813558   
     length 1.39447   
     axis 0 0 0   XYZ
    dof rx ry rz
    limits (-20.0 45.0)
           (-30.0 30.0)
           (-30.0 30.0)
  end
  begin
     id 15 
     name upperneck
     direction 0.210059 0.976535 0.0474817   
     length 1.39882   
     axis 0 0 0   XYZ
    dof rx ry rz
    limits (-20.0 45.0)
           (-30.0 30.0)
           (-30.0 30.0)
  end
  begin
     id 16
     name head
     direction 0.0780891 0.996944 -0.00207154  
     length 1.41828  
     axis 0 0 0   XYZ
    dof rx ry rz
    limits (-20.0 45.0)
           (-30.0 30.0)
           (-30.0 30.0)
  end
  begin
     id 17 
     name lclavicle
     direction 0.982414 0.166355 -0.0847829  
     length 3.57922  
     axis 0 0 0   XYZ
    dof ry rz
    limits (-20.0 10.0)
           (0.0 20.0)
  end
  begin
     id 18 
     name lhumerus
     direction 1 -4.48975e-011 5.47647e-028   
     length 4.76405   
     axis -180 -30 -90   XYZ
    dof rx ry rz
    limits (-60.0 90.0)
           (-90.0 90.0)
           (-90.0 90.0)
  end
  begin
     id 19
     name lradius
     direction 1 -4.48949e-011 -8.32142e-027   
     length 3.13759   
     axis -180 -30 -90   XYZ
    dof rx
    limits (-10.0 170.0)
  end
  begin
     id 20
     name lwrist
     direction 1 -4.48978e-011 -1.32705e-026   
     length 1.56879   
     axis 9.60836e-015 90 90   XYZ
    dof ry
    limits (-180.0 0.0)
 end
  begin
     id 21 
     name lhand
     direction 1 -4.48975e-011 -2.65409e-026   
     length 0.732262   
     axis 1.69354e-014 90 90   XYZ
    dof rx rz
    limits (-90.0 90.0)
           (-45.0 45.0)
  end
  begin
     id 22 
     name lfingers
     direction 1 -4.48923e-011 -5.30819e-026   
     length 0.590368   
     axis 3.38708e-014 90 90   XYZ
    dof rx
    limits (0.0 90.0)
  end
  begin
     id 23
     name lthumb
     direction 0.707107 -6.34914e-011 0.707107   
     length 0.847654   
     axis -90 45 2.85299e-015   XYZ
    dof rx rz
    limits (-45.0 45.0)
           (-45.0 45.0)
  end
  begin
     id 24 
     name rclavicle
     direction -0.963658 0.245183 -0.106063   
     length 3.43472  
     axis 0 0 0   XYZ 
    dof ry rz
    limits (-10.0 20.0)
           (-20.0 0.0)
  end
  begin
     id 25 
     name rhumerus
     direction -1 -4.48963e-011 -1.64784e-027  
     length 5.10161   
     axis -180 30 90   XYZ
    dof rx ry rz
    limits (-90.0 60.0)
           (-90.0 90.0)
           (-90.0 90.0)
  end
  begin
     id 26 
     name rradius
     direction -1 -4.48969e-011 -2.87943e-027   
     length 3.23267   
     axis -180 30 90   XYZ
    dof rx
    limits (-10.0 170.0)
  end
  begin
     id 27 
     name rwrist
     direction -1 -4.48982e-011 -1.32705e-026   
     length 1.61633   
     axis 9.60836e-015 -90 -90   XYZ
    dof ry
    limits (-180.0 0.0)
  end
  begin
     id 28
     name rhand
     direction -1 -4.48963e-011 -2.65409e-026   
     length 0.702   
     axis 1.69354e-014 -90 -90   XYZ
    dof rx rz
    limits (-90.0 90.0)
           (-45.0 45.0)
  end
  begin
     id 29
     name rfingers
     direction -1 -4.48934e-011 -5.30819e-026   
     length 0.565971   
     axis 3.38708e-014 -90 -90   XYZ
    dof rx
    limits (0.0 90.0)
  end
  begin
     id 30
     name rthumb
     direction -0.707107 -6.34908e-011 0.707107   
     length 0.812624   
     axis -90 -45 -2.85299e-015   XYZ
    dof rx rz
    limits (-45.0 45.0)
           (-45.0 45.0)
  end
:hierarchy
  begin
    root lhipjoint rhipjoint lowerback
    lhipjoint lfemur
    lfemur ltibia
    ltibia lfoot
    lfoot ltoes
    rhipjoint rfemur
    rfemur rtibia
    rtibia rfoot
    rfoot rtoes
    lowerback upperback
    upperback thorax
    thorax lowerneck lclavicle rclavicle
    lowerneck upperneck
    upperneck head
    lclavicle lhumerus
    lhumerus lradius
    lradius lwrist
    lwrist lhand lthumb
    lhand lfingers
    rclavicle rhumerus
    rhumerus rradius
    rradius rwrist
    rwrist rhand rthumb
    rhand rfingers
  end

#!OML:ASF \\sashay\E\basketball\basketball\Project 1\Capture day 1\Session 1\Subject.ASF
:FULLY-SPECIFIED
:DEGREES
1
root 30.7475 15.5243 0.703419 -175.44 -71.0702 173.046
lowerback 2.22361 0.0288608 -5.59864
upperback 6.92128 -0.171561 0.764158
thorax 5.98455 -0.525239 3.91835
lowerneck 5.6821 -7.22202 -16.8561
upperneck -13.9489 -9.20631 26.7233
head -2.6719 -5.61737 11.8115
rclavicle -1.37161e-014 1.63003e-014
rhumerus -26.22 -15.4946 -84.2605
rradius 30.4944
rwrist 9.5587
rhand -17.0731 27.9557
rfingers 7.12502
rthumb 9.1648 -1.82517
lclavicle -1.37161e-014 1.63003e-014
lhumerus -24.3284 15.5487 90.4332
lradius 19.7581
lwrist -8.10698
lhand -15.4884 24.1653
lfingers 7.12502
lthumb 10.6937 53.8732
rfemur -10.5928 3.55877 15.6653
rtibia 37.3017
rfoot -22.244 -22.2446
rtoes -14.6813
lfemur -5.54737 2.36304 -20.3028
ltibia 33.6541
lfoot -25.2658 19.2215
ltoes -8.939
2
root 30.7487 15.5244 0.70099 -175.216 -71.1459 172.828
lowerback 2.29383 -0.0053633 -5.6784
upperback 6.88921 -0.219465 0.744898
thorax 5.91669 -0.549625 3.94183
lowerneck 5.56923 -7.16404 -16.6996
upperneck -13.6644 -9.14072 26.4684
head -2.61474 -5.55739 11.6687
rclavicle -2.19657e-014 1.21259e-014
rhumerus -26.2812 -15.4639 -84.2643
rradius 30.4582
rwrist 9.52343
rhand -17.0564 28.084
rfingers 7.12502
rthumb 9.18094 -1.6961
lclavicle -2.19657e-014 1.21259e-014
lhumerus -24.1979 15.3999 90.5276
lradius 19.5343
lwrist -7.79366
lhand -16.1234 23.4735
lfingers 7.12502
lthumb 10.0812 53.212
rfemur -10.6428 3.39886 15.5907
rtibia 37.3687
rfoot -21.9997 -22.3614
rtoes -15.7501
lfemur -5.58014 2.42568 -20.3392
ltibia 33.5807
lfoot -24.9841 19.2809
ltoes -9.68706
3
root 30.7522 15.5234 0.698661 -175.195 -71.2421 172.825
lowerback 2.39387 -0.0415597 -5.71216
upperback 6.86231 -0.274354 0.753935
thorax 5.83764 -0.5759 3.96917
lowerneck 5.38135 -7.13346 -16.4269
upperneck -13.3533 -9.103 26.0874
head -2.54516 -5.50366 11.4517
rclavicle -1.53064e-014 6.16232e-015
rhumerus -26.3529 -15.4363 -84.2683
rradius 30.4766
rwrist 9.51692
rhand -16.9493 28.0716
rfingers 7.12502
rthumb 9.28424 -1.70401
lclavicle -1.53064e-014 6.16232e-015
lhumerus -24.0418 15.0796 90.722
lradius 19.4404
lwrist -7.03693
lhand -16.9245 23.0241
lfingers 7.12502
lthumb 9.30816 52.7986
rfemur -10.6727 3.29798 15.6128
rtibia 37.3915
rfoot -21.7078 -22.5671
rtoes -16.7569
lfemur -5.64177 2.42798 -20.2863
ltibia 33.5804
lfoot -24.9181 19.1243
ltoes -9.33473
4
root 30.754 15.5228 0.696137 -175.279 -71.284 172.925
lowerback 2.40163 -0.213972 -5.91397
upperback 6.91568 -0.517693 0.998926
thorax 5.92775 -0.722016 4.33348
lowerneck 4.91494 -6.90441 -16.8694
upperneck -12.9279 -8.82209 25.772
head -2.40355 -5.27888 11.3808
rclavicle 3.0911e-014 -1.80894e-014
rhumerus -26.1548 -14.7086 -84.1292
rradius 30.4387
rwrist 9.47602
rhand -16.9313 27.8488
rfingers 7.12502
rthumb 9.30167 -1.92602
lclavicle 3.0911e-014 -1.80894e-014
lhumerus -23.8687 15.8601 90.9976
lradius 19.5089
lwrist -7.16504
lhand -16.7504 23.0778
lfingers 7.12502
lthumb 9.47613 52.8447
rfemur -10.7001 3.21479 15.6557
rtibia 37.4371
rfoot -21.7566 -22.5041
rtoes -16.5539
lfemur -5.63595 2.47012 -20.2166
ltibia 33.554
lfoot -24.9228 18.977
ltoes -9.12755
5
root 30.7546 15.5227 0.692273 -175.23 -71.2954 172.903
lowerback 2.33328 -0.267244 -5.9843
upperback 6.98159 -0.588887 1.05685
thorax 6.04952 -0.770404 4.43116
lowerneck 4.58391 -6.75944 -16.8712
upperneck -12.6906 -8.61634 25.4909
head -2.34359 -5.13256 11.2582
rclavicle -6.04802e-014 1.5704e-014
rhumerus -25.9766 -14.6254 -84.1139
rradius 30.3248
rwrist 9.59426
rhand -17.0672 27.7367
rfingers 7.12502
rthumb 9.17048 -2.04394
lclavicle -6.04802e-014 1.5704e-014
lhumerus -23.6982 16.2822 91.0168
lradius 19.4869
lwrist -7.83401
lhand -15.8074 23.471
lfingers 7.12502
lthumb 10.3859 53.1945
rfemur -10.7545 3.12236 15.6469
rtibia 37.4993
rfoot -21.8319 -22.3852
rtoes -16.359
lfemur -5.63503 2.53221 -20.2011
ltibia 33.5197
lfoot -24.8736 18.9643
ltoes -9.46734
6
root 30.7559 15.5208 0.688272 -174.765 -71.287 172.437
lowerback 2.29462 -0.251623 -6.15689
upperback 7.05907 -0.564484 1.02067
thorax 6.15593 -0.774227 4.49031
lowerneck 4.23451 -6.68028 -16.7115
upperneck -12.585 -8.47238 25.3428
head -2.30207 -5.03948 11.1578
rclavicle -4.83544e-014 5.56597e-015
rhumerus -25.7611 -14.7997 -84.1405
rradius 30.1699
rwrist 9.72633
rhand -17.1757 27.6701
rfingers 7.12502
rthumb 9.0658 -2.11504
lclavicle -4.83544e-014 5.56597e-015
lhumerus -23.5009 16.2157 91.0979
lradius 19.5062
lwrist -8.05346
lhand -15.3316 23.7274
lfingers 7.12502
lthumb 10.8449 53.4274
rfemur -10.8064 2.95613 15.4672
rtibia 37.5569
rfoot -22.02 -22.1766
rtoes -16.0518
lfemur -5.64077 2.51147 -20.3447
ltibia 33.4939
lfoot -24.9681 18.8816
ltoes -8.94184
7
root 30.7569 15.5172 0.685085 -174.466 -71.271 172.105
lowerback 2.24823 -0.200747 -6.19159
upperback 7.19854 -0.493518 0.923441
thorax 6.3228 -0.750356 4.40825
lowerneck 3.95127 -6.55638 -16.5708
upperneck -12.6537 -8.25129 25.3786
head -2.32486 -4.93012 11.1449
rclavicle 7.95139e-016 3.77691e-015
rhumerus -25.5255 -15.0238 -84.2637
rradius 30.0978
rwrist 9.74896
rhand -17.1659 27.4618
rfingers 7.12502
rthumb 9.07528 -2.32292
lclavicle 7.95139e-016 3.77691e-015
lhumerus -23.2321 15.8036 91.2122
lradius 19.6331
lwrist -7.91034
lhand -15.423 23.6965
lfingers 7.12502
lthumb 10.7568 53.4011
rfemur -10.8124 2.82146 15.336
rtibia 37.6026
rfoot -22.1737 -22.0126
rtoes -15.8462
lfemur -5.62727 2.51241 -20.4395
ltibia 33.4695
lfoot -24.9938 18.8408
ltoes -8.58066
8
root 30.7554 15.519 0.681943 -174.609 -71.281 172.292
lowerback 2.07566 -0.170679 -5.95161
upperback 7.36272 -0.444112 0.795861
thorax 6.58464 -0.723194 4.13796
lowerneck 3.62974 -6.34958 -16.4703
upperneck -12.5965 -7.92767 25.448
head -2.32428 -4.7641 11.1486
rclavicle -5.85918e-014 1.47101e-014
rhumerus -25.2734 -15.3873 -84.4806
rradius 30.034
rwrist 9.84151
rhand -17.1308 27.3612
rfingers 7.12502
rthumb 9.10912 -2.42212
lclavicle -5.85918e-014 1.47101e-014
lhumerus -22.9277 15.2368 91.256
lradius 19.8061
lwrist -7.5957
lhand -15.4094 23.6464
lfingers 7.12502
lthumb 10.7699 53.3503
rfemur -10.869 2.74092 15.402
rtibia 37.6328
rfoot -21.916 -22.1068
rtoes -16.6809
lfemur -5.67021 2.69551 -20.3331
ltibia 33.447
lfoot -24.7688 18.8348
ltoes -9.33417
9
root 30.7517 15.5228 0.678807 -174.805 -71.2553 172.573
lowerback 1.9744 -0.174625 -5.75205
upperback 7.40284 -0.443611 0.729823
thorax 6.68017 -0.712909 3.95514
lowerneck 3.17765 -6.16266 -16.4046
upperneck -12.01 -7.68807 25.2739
head -2.14729 -4.59368 11.0328
rclavicle 3.18055e-015 4.77083e-015
rhumerus -25.2057 -15.6282 -84.5783
rradius 29.9084
rwrist 10.0297
rhand -17.0939 27.535
rfingers 7.12502
rthumb 9.14478 -2.24668
lclavicle 3.18055e-015 4.77083e-015
lhumerus -22.8404 14.8401 91.2717
lradius 19.9609
lwrist -7.16937
lhand -15.1661 23.6064
lfingers 7.12502
lthumb 11.0045 53.298
rfemur -10.9744 2.56897 15.4993
rtibia 37.6364
rfoot -21.0724 -22.5385
rtoes -19.5543
lfemur -5.72097 2.86222 -20.2046
ltibia 33.4569
lfoot -24.7392 18.7208
ltoes -9.41287
10
root 30.7479 15.5212 0.676285 -174.902 -71.1995 172.68
lowerback 2.16157 -0.173137 -5.68537
upperback 7.26387 -0.449629 0.704714
thorax 6.42094 -0.697158 3.893
lowerneck 3.00947 -6.13518 -16.0787
upperneck -11.3705 -7.70164 24.7244
head -1.98513 -4.54799 10.7357
rclavicle -2.47984e-014 -1.98785e-016
rhumerus -25.5026 -15.6639 -84.5301
rradius 29.8194
rwrist 10.1604
rhand -17.093 27.7231
rfingers 7.12502
rthumb 9.14558 -2.05859
lclavicle -2.47984e-014 -1.98785e-016
lhumerus -23.1384 14.4182 91.3159
lradius 20.2233
lwrist -6.65997
lhand -14.9621 23.9398
lfingers 7.12502
lthumb 11.2013 53.6208
rfemur -10.9996 2.42361 15.5305
rtibia 37.626
rfoot -20.4658 -22.8264
rtoes -21.728
lfemur -5.73283 2.90295 -20.1592
ltibia 33.5009
lfoot -24.7926 18.7419
ltoes -9.24186
